<mxfile host="app.diagrams.net" modified="2023-09-21T03:42:24.373Z" agent="Mozilla/5.0 (Windows NT 10.0; Win64; x64) AppleWebKit/537.36 (KHTML, like Gecko) Chrome/116.0.0.0 Safari/537.36" etag="jMFibuLKIfe4hTG-YAB0" version="21.7.5" type="device" pages="2">
  <diagram name="ULM Diagram" id="M-dSddxrj5BPHkcw2WSv">
    <mxGraphModel dx="2012" dy="639" grid="1" gridSize="10" guides="1" tooltips="1" connect="1" arrows="1" fold="1" page="1" pageScale="1" pageWidth="827" pageHeight="1169" math="0" shadow="0">
      <root>
        <mxCell id="0" />
        <mxCell id="1" parent="0" />
        <mxCell id="uOKx0rj1_0cN2vvm_NeN-1" value="Identifiable Object" style="swimlane;fontStyle=1;align=center;verticalAlign=top;childLayout=stackLayout;horizontal=1;startSize=26;horizontalStack=0;resizeParent=1;resizeParentMax=0;resizeLast=0;collapsible=1;marginBottom=0;whiteSpace=wrap;html=1;" parent="1" vertex="1">
          <mxGeometry x="110" y="200" width="260" height="164" as="geometry" />
        </mxCell>
        <mxCell id="uOKx0rj1_0cN2vvm_NeN-2" value="+ _identifiers: List&amp;lt;string&amp;gt;&amp;nbsp; &amp;nbsp; &amp;nbsp; &amp;nbsp;" style="text;strokeColor=none;fillColor=none;align=left;verticalAlign=top;spacingLeft=4;spacingRight=4;overflow=hidden;rotatable=0;points=[[0,0.5],[1,0.5]];portConstraint=eastwest;whiteSpace=wrap;html=1;" parent="uOKx0rj1_0cN2vvm_NeN-1" vertex="1">
          <mxGeometry y="26" width="260" height="26" as="geometry" />
        </mxCell>
        <mxCell id="uOKx0rj1_0cN2vvm_NeN-3" value="" style="line;strokeWidth=1;fillColor=none;align=left;verticalAlign=middle;spacingTop=-1;spacingLeft=3;spacingRight=3;rotatable=0;labelPosition=right;points=[];portConstraint=eastwest;strokeColor=inherit;" parent="uOKx0rj1_0cN2vvm_NeN-1" vertex="1">
          <mxGeometry y="52" width="260" height="8" as="geometry" />
        </mxCell>
        <mxCell id="uOKx0rj1_0cN2vvm_NeN-4" value="+ IdentifiableObject(string[] idents)" style="text;strokeColor=none;fillColor=none;align=left;verticalAlign=top;spacingLeft=4;spacingRight=4;overflow=hidden;rotatable=0;points=[[0,0.5],[1,0.5]];portConstraint=eastwest;whiteSpace=wrap;html=1;" parent="uOKx0rj1_0cN2vvm_NeN-1" vertex="1">
          <mxGeometry y="60" width="260" height="26" as="geometry" />
        </mxCell>
        <mxCell id="uOKx0rj1_0cN2vvm_NeN-5" value="+ AreYou(string ID): bool&amp;nbsp;" style="text;strokeColor=none;fillColor=none;align=left;verticalAlign=top;spacingLeft=4;spacingRight=4;overflow=hidden;rotatable=0;points=[[0,0.5],[1,0.5]];portConstraint=eastwest;whiteSpace=wrap;html=1;" parent="uOKx0rj1_0cN2vvm_NeN-1" vertex="1">
          <mxGeometry y="86" width="260" height="26" as="geometry" />
        </mxCell>
        <mxCell id="uOKx0rj1_0cN2vvm_NeN-6" value="+ FirstID: string&amp;lt;&amp;lt;readonly property&amp;gt;&amp;gt;" style="text;strokeColor=none;fillColor=none;align=left;verticalAlign=top;spacingLeft=4;spacingRight=4;overflow=hidden;rotatable=0;points=[[0,0.5],[1,0.5]];portConstraint=eastwest;whiteSpace=wrap;html=1;" parent="uOKx0rj1_0cN2vvm_NeN-1" vertex="1">
          <mxGeometry y="112" width="260" height="26" as="geometry" />
        </mxCell>
        <mxCell id="uOKx0rj1_0cN2vvm_NeN-7" value="+ AddIdentifier(string ID)" style="text;strokeColor=none;fillColor=none;align=left;verticalAlign=top;spacingLeft=4;spacingRight=4;overflow=hidden;rotatable=0;points=[[0,0.5],[1,0.5]];portConstraint=eastwest;whiteSpace=wrap;html=1;" parent="uOKx0rj1_0cN2vvm_NeN-1" vertex="1">
          <mxGeometry y="138" width="260" height="26" as="geometry" />
        </mxCell>
        <mxCell id="uOKx0rj1_0cN2vvm_NeN-16" value="" style="edgeStyle=orthogonalEdgeStyle;rounded=0;orthogonalLoop=1;jettySize=auto;html=1;entryX=0.5;entryY=1;entryDx=0;entryDy=0;" parent="1" source="uOKx0rj1_0cN2vvm_NeN-8" target="uOKx0rj1_0cN2vvm_NeN-1" edge="1">
          <mxGeometry relative="1" as="geometry" />
        </mxCell>
        <mxCell id="uOKx0rj1_0cN2vvm_NeN-8" value="Game Object &lt;br&gt;&amp;lt;&amp;lt;abstract&amp;gt;&amp;gt;" style="swimlane;fontStyle=1;align=center;verticalAlign=top;childLayout=stackLayout;horizontal=1;startSize=40;horizontalStack=0;resizeParent=1;resizeParentMax=0;resizeLast=0;collapsible=1;marginBottom=0;whiteSpace=wrap;html=1;" parent="1" vertex="1">
          <mxGeometry x="84" y="430" width="380" height="204" as="geometry">
            <mxRectangle x="150" y="470" width="120" height="40" as="alternateBounds" />
          </mxGeometry>
        </mxCell>
        <mxCell id="uOKx0rj1_0cN2vvm_NeN-9" value="+ _description: string" style="text;strokeColor=none;fillColor=none;align=left;verticalAlign=top;spacingLeft=4;spacingRight=4;overflow=hidden;rotatable=0;points=[[0,0.5],[1,0.5]];portConstraint=eastwest;whiteSpace=wrap;html=1;" parent="uOKx0rj1_0cN2vvm_NeN-8" vertex="1">
          <mxGeometry y="40" width="380" height="26" as="geometry" />
        </mxCell>
        <mxCell id="uOKx0rj1_0cN2vvm_NeN-12" value="+ _name: string" style="text;strokeColor=none;fillColor=none;align=left;verticalAlign=top;spacingLeft=4;spacingRight=4;overflow=hidden;rotatable=0;points=[[0,0.5],[1,0.5]];portConstraint=eastwest;whiteSpace=wrap;html=1;" parent="uOKx0rj1_0cN2vvm_NeN-8" vertex="1">
          <mxGeometry y="66" width="380" height="26" as="geometry" />
        </mxCell>
        <mxCell id="uOKx0rj1_0cN2vvm_NeN-10" value="" style="line;strokeWidth=1;fillColor=none;align=left;verticalAlign=middle;spacingTop=-1;spacingLeft=3;spacingRight=3;rotatable=0;labelPosition=right;points=[];portConstraint=eastwest;strokeColor=inherit;" parent="uOKx0rj1_0cN2vvm_NeN-8" vertex="1">
          <mxGeometry y="92" width="380" height="8" as="geometry" />
        </mxCell>
        <mxCell id="uOKx0rj1_0cN2vvm_NeN-11" value="+ GameObject(string[] ids, string name, string desc" style="text;strokeColor=none;fillColor=none;align=left;verticalAlign=top;spacingLeft=4;spacingRight=4;overflow=hidden;rotatable=0;points=[[0,0.5],[1,0.5]];portConstraint=eastwest;whiteSpace=wrap;html=1;" parent="uOKx0rj1_0cN2vvm_NeN-8" vertex="1">
          <mxGeometry y="100" width="380" height="26" as="geometry" />
        </mxCell>
        <mxCell id="uOKx0rj1_0cN2vvm_NeN-13" value="+ Name: string &amp;lt;&amp;lt;readonly, property&amp;gt;&amp;gt;" style="text;strokeColor=none;fillColor=none;align=left;verticalAlign=top;spacingLeft=4;spacingRight=4;overflow=hidden;rotatable=0;points=[[0,0.5],[1,0.5]];portConstraint=eastwest;whiteSpace=wrap;html=1;" parent="uOKx0rj1_0cN2vvm_NeN-8" vertex="1">
          <mxGeometry y="126" width="380" height="26" as="geometry" />
        </mxCell>
        <mxCell id="uOKx0rj1_0cN2vvm_NeN-15" value="+ ShortDescription: string&amp;lt;&amp;lt;readonly, property&amp;gt;&amp;gt;" style="text;strokeColor=none;fillColor=none;align=left;verticalAlign=top;spacingLeft=4;spacingRight=4;overflow=hidden;rotatable=0;points=[[0,0.5],[1,0.5]];portConstraint=eastwest;whiteSpace=wrap;html=1;" parent="uOKx0rj1_0cN2vvm_NeN-8" vertex="1">
          <mxGeometry y="152" width="380" height="26" as="geometry" />
        </mxCell>
        <mxCell id="uOKx0rj1_0cN2vvm_NeN-14" value="+ FullDescription: string&amp;lt;&amp;lt;virtual, readonly, property&amp;gt;&amp;gt;" style="text;strokeColor=none;fillColor=none;align=left;verticalAlign=top;spacingLeft=4;spacingRight=4;overflow=hidden;rotatable=0;points=[[0,0.5],[1,0.5]];portConstraint=eastwest;whiteSpace=wrap;html=1;" parent="uOKx0rj1_0cN2vvm_NeN-8" vertex="1">
          <mxGeometry y="178" width="380" height="26" as="geometry" />
        </mxCell>
        <mxCell id="uOKx0rj1_0cN2vvm_NeN-22" value="Item" style="swimlane;fontStyle=1;align=center;verticalAlign=top;childLayout=stackLayout;horizontal=1;startSize=26;horizontalStack=0;resizeParent=1;resizeParentMax=0;resizeLast=0;collapsible=1;marginBottom=0;whiteSpace=wrap;html=1;" parent="1" vertex="1">
          <mxGeometry x="134" y="700" width="280" height="60" as="geometry" />
        </mxCell>
        <mxCell id="uOKx0rj1_0cN2vvm_NeN-24" value="" style="line;strokeWidth=1;fillColor=none;align=left;verticalAlign=middle;spacingTop=-1;spacingLeft=3;spacingRight=3;rotatable=0;labelPosition=right;points=[];portConstraint=eastwest;strokeColor=inherit;" parent="uOKx0rj1_0cN2vvm_NeN-22" vertex="1">
          <mxGeometry y="26" width="280" height="8" as="geometry" />
        </mxCell>
        <mxCell id="uOKx0rj1_0cN2vvm_NeN-25" value="+ Item(string[] idents, string name, string desc" style="text;strokeColor=none;fillColor=none;align=left;verticalAlign=top;spacingLeft=4;spacingRight=4;overflow=hidden;rotatable=0;points=[[0,0.5],[1,0.5]];portConstraint=eastwest;whiteSpace=wrap;html=1;" parent="uOKx0rj1_0cN2vvm_NeN-22" vertex="1">
          <mxGeometry y="34" width="280" height="26" as="geometry" />
        </mxCell>
        <mxCell id="uOKx0rj1_0cN2vvm_NeN-26" value="Inventory" style="swimlane;fontStyle=1;align=center;verticalAlign=top;childLayout=stackLayout;horizontal=1;startSize=26;horizontalStack=0;resizeParent=1;resizeParentMax=0;resizeLast=0;collapsible=1;marginBottom=0;whiteSpace=wrap;html=1;" parent="1" vertex="1">
          <mxGeometry x="520" y="600" width="250" height="216" as="geometry" />
        </mxCell>
        <mxCell id="uOKx0rj1_0cN2vvm_NeN-27" value="+ _items: List&amp;lt;Item&amp;gt;" style="text;strokeColor=none;fillColor=none;align=left;verticalAlign=top;spacingLeft=4;spacingRight=4;overflow=hidden;rotatable=0;points=[[0,0.5],[1,0.5]];portConstraint=eastwest;whiteSpace=wrap;html=1;" parent="uOKx0rj1_0cN2vvm_NeN-26" vertex="1">
          <mxGeometry y="26" width="250" height="26" as="geometry" />
        </mxCell>
        <mxCell id="uOKx0rj1_0cN2vvm_NeN-28" value="" style="line;strokeWidth=1;fillColor=none;align=left;verticalAlign=middle;spacingTop=-1;spacingLeft=3;spacingRight=3;rotatable=0;labelPosition=right;points=[];portConstraint=eastwest;strokeColor=inherit;" parent="uOKx0rj1_0cN2vvm_NeN-26" vertex="1">
          <mxGeometry y="52" width="250" height="8" as="geometry" />
        </mxCell>
        <mxCell id="uOKx0rj1_0cN2vvm_NeN-29" value="+ Inventory()" style="text;strokeColor=none;fillColor=none;align=left;verticalAlign=top;spacingLeft=4;spacingRight=4;overflow=hidden;rotatable=0;points=[[0,0.5],[1,0.5]];portConstraint=eastwest;whiteSpace=wrap;html=1;" parent="uOKx0rj1_0cN2vvm_NeN-26" vertex="1">
          <mxGeometry y="60" width="250" height="26" as="geometry" />
        </mxCell>
        <mxCell id="uOKx0rj1_0cN2vvm_NeN-30" value="+ HasItem(string ID): bool" style="text;strokeColor=none;fillColor=none;align=left;verticalAlign=top;spacingLeft=4;spacingRight=4;overflow=hidden;rotatable=0;points=[[0,0.5],[1,0.5]];portConstraint=eastwest;whiteSpace=wrap;html=1;" parent="uOKx0rj1_0cN2vvm_NeN-26" vertex="1">
          <mxGeometry y="86" width="250" height="26" as="geometry" />
        </mxCell>
        <mxCell id="uOKx0rj1_0cN2vvm_NeN-31" value="+ Put(Item item): void" style="text;strokeColor=none;fillColor=none;align=left;verticalAlign=top;spacingLeft=4;spacingRight=4;overflow=hidden;rotatable=0;points=[[0,0.5],[1,0.5]];portConstraint=eastwest;whiteSpace=wrap;html=1;" parent="uOKx0rj1_0cN2vvm_NeN-26" vertex="1">
          <mxGeometry y="112" width="250" height="26" as="geometry" />
        </mxCell>
        <mxCell id="uOKx0rj1_0cN2vvm_NeN-32" value="+ Take(string ID): Item" style="text;strokeColor=none;fillColor=none;align=left;verticalAlign=top;spacingLeft=4;spacingRight=4;overflow=hidden;rotatable=0;points=[[0,0.5],[1,0.5]];portConstraint=eastwest;whiteSpace=wrap;html=1;" parent="uOKx0rj1_0cN2vvm_NeN-26" vertex="1">
          <mxGeometry y="138" width="250" height="26" as="geometry" />
        </mxCell>
        <mxCell id="uOKx0rj1_0cN2vvm_NeN-33" value="+ Fetch(string ID): Item" style="text;strokeColor=none;fillColor=none;align=left;verticalAlign=top;spacingLeft=4;spacingRight=4;overflow=hidden;rotatable=0;points=[[0,0.5],[1,0.5]];portConstraint=eastwest;whiteSpace=wrap;html=1;" parent="uOKx0rj1_0cN2vvm_NeN-26" vertex="1">
          <mxGeometry y="164" width="250" height="26" as="geometry" />
        </mxCell>
        <mxCell id="uOKx0rj1_0cN2vvm_NeN-34" value="+ ItemList: string&amp;lt;&amp;lt;readonly, property&amp;gt;&amp;gt;" style="text;strokeColor=none;fillColor=none;align=left;verticalAlign=top;spacingLeft=4;spacingRight=4;overflow=hidden;rotatable=0;points=[[0,0.5],[1,0.5]];portConstraint=eastwest;whiteSpace=wrap;html=1;" parent="uOKx0rj1_0cN2vvm_NeN-26" vertex="1">
          <mxGeometry y="190" width="250" height="26" as="geometry" />
        </mxCell>
        <mxCell id="uOKx0rj1_0cN2vvm_NeN-37" value="" style="endArrow=diamondThin;endFill=0;endSize=24;html=1;rounded=0;exitX=1;exitY=0.5;exitDx=0;exitDy=0;entryX=0;entryY=0.362;entryDx=0;entryDy=0;entryPerimeter=0;" parent="1" source="uOKx0rj1_0cN2vvm_NeN-25" target="uOKx0rj1_0cN2vvm_NeN-32" edge="1">
          <mxGeometry width="160" relative="1" as="geometry">
            <mxPoint x="370" y="770" as="sourcePoint" />
            <mxPoint x="530" y="770" as="targetPoint" />
          </mxGeometry>
        </mxCell>
        <mxCell id="uOKx0rj1_0cN2vvm_NeN-38" value="Player" style="swimlane;fontStyle=1;align=center;verticalAlign=top;childLayout=stackLayout;horizontal=1;startSize=26;horizontalStack=0;resizeParent=1;resizeParentMax=0;resizeLast=0;collapsible=1;marginBottom=0;whiteSpace=wrap;html=1;" parent="1" vertex="1">
          <mxGeometry x="-90" y="790" width="340" height="164" as="geometry" />
        </mxCell>
        <mxCell id="uOKx0rj1_0cN2vvm_NeN-39" value="+ _inventory: Inventory" style="text;strokeColor=none;fillColor=none;align=left;verticalAlign=top;spacingLeft=4;spacingRight=4;overflow=hidden;rotatable=0;points=[[0,0.5],[1,0.5]];portConstraint=eastwest;whiteSpace=wrap;html=1;" parent="uOKx0rj1_0cN2vvm_NeN-38" vertex="1">
          <mxGeometry y="26" width="340" height="26" as="geometry" />
        </mxCell>
        <mxCell id="uOKx0rj1_0cN2vvm_NeN-40" value="" style="line;strokeWidth=1;fillColor=none;align=left;verticalAlign=middle;spacingTop=-1;spacingLeft=3;spacingRight=3;rotatable=0;labelPosition=right;points=[];portConstraint=eastwest;strokeColor=inherit;" parent="uOKx0rj1_0cN2vvm_NeN-38" vertex="1">
          <mxGeometry y="52" width="340" height="8" as="geometry" />
        </mxCell>
        <mxCell id="uOKx0rj1_0cN2vvm_NeN-41" value="+&amp;nbsp; Player(string name, string desc)" style="text;strokeColor=none;fillColor=none;align=left;verticalAlign=top;spacingLeft=4;spacingRight=4;overflow=hidden;rotatable=0;points=[[0,0.5],[1,0.5]];portConstraint=eastwest;whiteSpace=wrap;html=1;" parent="uOKx0rj1_0cN2vvm_NeN-38" vertex="1">
          <mxGeometry y="60" width="340" height="26" as="geometry" />
        </mxCell>
        <mxCell id="uOKx0rj1_0cN2vvm_NeN-42" value="+&amp;nbsp; Locate(string id): GameObject" style="text;strokeColor=none;fillColor=none;align=left;verticalAlign=top;spacingLeft=4;spacingRight=4;overflow=hidden;rotatable=0;points=[[0,0.5],[1,0.5]];portConstraint=eastwest;whiteSpace=wrap;html=1;" parent="uOKx0rj1_0cN2vvm_NeN-38" vertex="1">
          <mxGeometry y="86" width="340" height="26" as="geometry" />
        </mxCell>
        <mxCell id="uOKx0rj1_0cN2vvm_NeN-43" value="+&amp;nbsp; FullDescription: string&amp;lt;&amp;lt;override, readonly, property&amp;gt;&amp;gt;" style="text;strokeColor=none;fillColor=none;align=left;verticalAlign=top;spacingLeft=4;spacingRight=4;overflow=hidden;rotatable=0;points=[[0,0.5],[1,0.5]];portConstraint=eastwest;whiteSpace=wrap;html=1;" parent="uOKx0rj1_0cN2vvm_NeN-38" vertex="1">
          <mxGeometry y="112" width="340" height="26" as="geometry" />
        </mxCell>
        <mxCell id="uOKx0rj1_0cN2vvm_NeN-44" value="+&amp;nbsp; Inventory: Inventory&amp;lt;&amp;lt;readonly, property&amp;gt;&amp;gt;" style="text;strokeColor=none;fillColor=none;align=left;verticalAlign=top;spacingLeft=4;spacingRight=4;overflow=hidden;rotatable=0;points=[[0,0.5],[1,0.5]];portConstraint=eastwest;whiteSpace=wrap;html=1;" parent="uOKx0rj1_0cN2vvm_NeN-38" vertex="1">
          <mxGeometry y="138" width="340" height="26" as="geometry" />
        </mxCell>
        <mxCell id="uOKx0rj1_0cN2vvm_NeN-47" value="" style="endArrow=block;endSize=16;endFill=0;html=1;rounded=0;exitX=0.481;exitY=-0.01;exitDx=0;exitDy=0;exitPerimeter=0;entryX=0.486;entryY=0.946;entryDx=0;entryDy=0;entryPerimeter=0;" parent="1" source="uOKx0rj1_0cN2vvm_NeN-22" target="uOKx0rj1_0cN2vvm_NeN-14" edge="1">
          <mxGeometry width="160" relative="1" as="geometry">
            <mxPoint x="270" y="704" as="sourcePoint" />
            <mxPoint x="270" y="660" as="targetPoint" />
            <Array as="points">
              <mxPoint x="269" y="660" />
            </Array>
          </mxGeometry>
        </mxCell>
        <mxCell id="uOKx0rj1_0cN2vvm_NeN-48" value="" style="endArrow=block;endSize=16;endFill=0;html=1;rounded=0;exitX=0.489;exitY=0.016;exitDx=0;exitDy=0;exitPerimeter=0;entryX=0.263;entryY=1.038;entryDx=0;entryDy=0;entryPerimeter=0;" parent="1" source="uOKx0rj1_0cN2vvm_NeN-38" target="uOKx0rj1_0cN2vvm_NeN-14" edge="1">
          <mxGeometry width="160" relative="1" as="geometry">
            <mxPoint x="80" y="741" as="sourcePoint" />
            <mxPoint x="80" y="675" as="targetPoint" />
            <Array as="points">
              <mxPoint x="76" y="750" />
              <mxPoint x="76" y="670" />
              <mxPoint x="184" y="670" />
            </Array>
          </mxGeometry>
        </mxCell>
        <mxCell id="aBuqhqVqtttqRS04YQ0r-1" value="Bag" style="swimlane;fontStyle=1;align=center;verticalAlign=top;childLayout=stackLayout;horizontal=1;startSize=26;horizontalStack=0;resizeParent=1;resizeParentMax=0;resizeLast=0;collapsible=1;marginBottom=0;whiteSpace=wrap;html=1;" parent="1" vertex="1">
          <mxGeometry x="340" y="927" width="390" height="164" as="geometry" />
        </mxCell>
        <mxCell id="aBuqhqVqtttqRS04YQ0r-2" value="+ _inventory: Inventory" style="text;strokeColor=none;fillColor=none;align=left;verticalAlign=top;spacingLeft=4;spacingRight=4;overflow=hidden;rotatable=0;points=[[0,0.5],[1,0.5]];portConstraint=eastwest;whiteSpace=wrap;html=1;" parent="aBuqhqVqtttqRS04YQ0r-1" vertex="1">
          <mxGeometry y="26" width="390" height="26" as="geometry" />
        </mxCell>
        <mxCell id="aBuqhqVqtttqRS04YQ0r-3" value="" style="line;strokeWidth=1;fillColor=none;align=left;verticalAlign=middle;spacingTop=-1;spacingLeft=3;spacingRight=3;rotatable=0;labelPosition=right;points=[];portConstraint=eastwest;strokeColor=inherit;" parent="aBuqhqVqtttqRS04YQ0r-1" vertex="1">
          <mxGeometry y="52" width="390" height="8" as="geometry" />
        </mxCell>
        <mxCell id="aBuqhqVqtttqRS04YQ0r-4" value="+ Bag(string[]ids, string name, string desc)" style="text;strokeColor=none;fillColor=none;align=left;verticalAlign=top;spacingLeft=4;spacingRight=4;overflow=hidden;rotatable=0;points=[[0,0.5],[1,0.5]];portConstraint=eastwest;whiteSpace=wrap;html=1;" parent="aBuqhqVqtttqRS04YQ0r-1" vertex="1">
          <mxGeometry y="60" width="390" height="26" as="geometry" />
        </mxCell>
        <mxCell id="aBuqhqVqtttqRS04YQ0r-5" value="+ Locate(string ID): GameObject" style="text;strokeColor=none;fillColor=none;align=left;verticalAlign=top;spacingLeft=4;spacingRight=4;overflow=hidden;rotatable=0;points=[[0,0.5],[1,0.5]];portConstraint=eastwest;whiteSpace=wrap;html=1;" parent="aBuqhqVqtttqRS04YQ0r-1" vertex="1">
          <mxGeometry y="86" width="390" height="26" as="geometry" />
        </mxCell>
        <mxCell id="aBuqhqVqtttqRS04YQ0r-6" value="+ FullDescription: string &amp;lt;&amp;lt;readonly, property&amp;gt;&amp;gt;" style="text;strokeColor=none;fillColor=none;align=left;verticalAlign=top;spacingLeft=4;spacingRight=4;overflow=hidden;rotatable=0;points=[[0,0.5],[1,0.5]];portConstraint=eastwest;whiteSpace=wrap;html=1;" parent="aBuqhqVqtttqRS04YQ0r-1" vertex="1">
          <mxGeometry y="112" width="390" height="26" as="geometry" />
        </mxCell>
        <mxCell id="aBuqhqVqtttqRS04YQ0r-7" value="+ Inventory: Inventory&amp;lt;&amp;lt;readonly, property&amp;gt;&amp;gt;" style="text;strokeColor=none;fillColor=none;align=left;verticalAlign=top;spacingLeft=4;spacingRight=4;overflow=hidden;rotatable=0;points=[[0,0.5],[1,0.5]];portConstraint=eastwest;whiteSpace=wrap;html=1;" parent="aBuqhqVqtttqRS04YQ0r-1" vertex="1">
          <mxGeometry y="138" width="390" height="26" as="geometry" />
        </mxCell>
        <mxCell id="aBuqhqVqtttqRS04YQ0r-8" value="" style="endArrow=open;endFill=1;endSize=12;html=1;rounded=0;exitX=0.75;exitY=0;exitDx=0;exitDy=0;entryX=0.448;entryY=0.996;entryDx=0;entryDy=0;entryPerimeter=0;" parent="1" source="aBuqhqVqtttqRS04YQ0r-1" target="uOKx0rj1_0cN2vvm_NeN-34" edge="1">
          <mxGeometry width="160" relative="1" as="geometry">
            <mxPoint x="370" y="860" as="sourcePoint" />
            <mxPoint x="530" y="860" as="targetPoint" />
          </mxGeometry>
        </mxCell>
        <mxCell id="aBuqhqVqtttqRS04YQ0r-9" value="" style="endArrow=block;endSize=16;endFill=0;html=1;rounded=0;exitX=0.25;exitY=0;exitDx=0;exitDy=0;entryX=0.746;entryY=1.054;entryDx=0;entryDy=0;entryPerimeter=0;" parent="1" source="aBuqhqVqtttqRS04YQ0r-1" target="uOKx0rj1_0cN2vvm_NeN-25" edge="1">
          <mxGeometry width="160" relative="1" as="geometry">
            <mxPoint x="300" y="830" as="sourcePoint" />
            <mxPoint x="438" y="840" as="targetPoint" />
            <Array as="points">
              <mxPoint x="438" y="820" />
              <mxPoint x="343" y="820" />
            </Array>
          </mxGeometry>
        </mxCell>
        <mxCell id="aBuqhqVqtttqRS04YQ0r-10" value="&amp;lt;&amp;lt;abstract&amp;gt;&amp;gt;&lt;br&gt;Command" style="swimlane;fontStyle=1;align=center;verticalAlign=top;childLayout=stackLayout;horizontal=1;startSize=40;horizontalStack=0;resizeParent=1;resizeParentMax=0;resizeLast=0;collapsible=1;marginBottom=0;whiteSpace=wrap;html=1;" parent="1" vertex="1">
          <mxGeometry x="-350" y="213" width="290" height="100" as="geometry" />
        </mxCell>
        <mxCell id="aBuqhqVqtttqRS04YQ0r-12" value="" style="line;strokeWidth=1;fillColor=none;align=left;verticalAlign=middle;spacingTop=-1;spacingLeft=3;spacingRight=3;rotatable=0;labelPosition=right;points=[];portConstraint=eastwest;strokeColor=inherit;" parent="aBuqhqVqtttqRS04YQ0r-10" vertex="1">
          <mxGeometry y="40" width="290" height="8" as="geometry" />
        </mxCell>
        <mxCell id="aBuqhqVqtttqRS04YQ0r-13" value="+ Command(string[]ids)" style="text;strokeColor=none;fillColor=none;align=left;verticalAlign=top;spacingLeft=4;spacingRight=4;overflow=hidden;rotatable=0;points=[[0,0.5],[1,0.5]];portConstraint=eastwest;whiteSpace=wrap;html=1;" parent="aBuqhqVqtttqRS04YQ0r-10" vertex="1">
          <mxGeometry y="48" width="290" height="26" as="geometry" />
        </mxCell>
        <mxCell id="aBuqhqVqtttqRS04YQ0r-14" value="+ Execute(Player p, string []text): string&amp;lt;&amp;lt;abstract&amp;gt;&amp;gt;" style="text;strokeColor=none;fillColor=none;align=left;verticalAlign=top;spacingLeft=4;spacingRight=4;overflow=hidden;rotatable=0;points=[[0,0.5],[1,0.5]];portConstraint=eastwest;whiteSpace=wrap;html=1;" parent="aBuqhqVqtttqRS04YQ0r-10" vertex="1">
          <mxGeometry y="74" width="290" height="26" as="geometry" />
        </mxCell>
        <mxCell id="aBuqhqVqtttqRS04YQ0r-15" value="" style="endArrow=block;endSize=16;endFill=0;html=1;rounded=0;exitX=1;exitY=0.25;exitDx=0;exitDy=0;entryX=0;entryY=0.5;entryDx=0;entryDy=0;" parent="1" source="aBuqhqVqtttqRS04YQ0r-10" target="uOKx0rj1_0cN2vvm_NeN-2" edge="1">
          <mxGeometry width="160" relative="1" as="geometry">
            <mxPoint x="-100" y="230" as="sourcePoint" />
            <mxPoint x="60" y="230" as="targetPoint" />
          </mxGeometry>
        </mxCell>
        <mxCell id="aBuqhqVqtttqRS04YQ0r-16" value="Look Command" style="swimlane;fontStyle=1;align=center;verticalAlign=top;childLayout=stackLayout;horizontal=1;startSize=26;horizontalStack=0;resizeParent=1;resizeParentMax=0;resizeLast=0;collapsible=1;marginBottom=0;whiteSpace=wrap;html=1;" parent="1" vertex="1">
          <mxGeometry x="-390" y="383" width="370" height="164" as="geometry" />
        </mxCell>
        <mxCell id="aBuqhqVqtttqRS04YQ0r-18" value="" style="line;strokeWidth=1;fillColor=none;align=left;verticalAlign=middle;spacingTop=-1;spacingLeft=3;spacingRight=3;rotatable=0;labelPosition=right;points=[];portConstraint=eastwest;strokeColor=inherit;" parent="aBuqhqVqtttqRS04YQ0r-16" vertex="1">
          <mxGeometry y="26" width="370" height="8" as="geometry" />
        </mxCell>
        <mxCell id="aBuqhqVqtttqRS04YQ0r-19" value="+ LookCommand()" style="text;strokeColor=none;fillColor=none;align=left;verticalAlign=top;spacingLeft=4;spacingRight=4;overflow=hidden;rotatable=0;points=[[0,0.5],[1,0.5]];portConstraint=eastwest;whiteSpace=wrap;html=1;" parent="aBuqhqVqtttqRS04YQ0r-16" vertex="1">
          <mxGeometry y="34" width="370" height="26" as="geometry" />
        </mxCell>
        <mxCell id="aBuqhqVqtttqRS04YQ0r-21" value="+ Execute(Player p, string[] text): string" style="text;strokeColor=none;fillColor=none;align=left;verticalAlign=top;spacingLeft=4;spacingRight=4;overflow=hidden;rotatable=0;points=[[0,0.5],[1,0.5]];portConstraint=eastwest;whiteSpace=wrap;html=1;" parent="aBuqhqVqtttqRS04YQ0r-16" vertex="1">
          <mxGeometry y="60" width="370" height="26" as="geometry" />
        </mxCell>
        <mxCell id="aBuqhqVqtttqRS04YQ0r-20" value="- FetchContainer(Player p, string containerID): IHaveInventory" style="text;strokeColor=none;fillColor=none;align=left;verticalAlign=top;spacingLeft=4;spacingRight=4;overflow=hidden;rotatable=0;points=[[0,0.5],[1,0.5]];portConstraint=eastwest;whiteSpace=wrap;html=1;" parent="aBuqhqVqtttqRS04YQ0r-16" vertex="1">
          <mxGeometry y="86" width="370" height="26" as="geometry" />
        </mxCell>
        <mxCell id="K2tTQRfAD9SXWWdDCdx0-9" value="- LookAtIn(string thingID, IHaveInventory containter): string" style="text;strokeColor=none;fillColor=none;align=left;verticalAlign=top;spacingLeft=4;spacingRight=4;overflow=hidden;rotatable=0;points=[[0,0.5],[1,0.5]];portConstraint=eastwest;whiteSpace=wrap;html=1;" parent="aBuqhqVqtttqRS04YQ0r-16" vertex="1">
          <mxGeometry y="112" width="370" height="26" as="geometry" />
        </mxCell>
        <mxCell id="aBuqhqVqtttqRS04YQ0r-22" value="- LookAtLoc(string roomID): string" style="text;strokeColor=none;fillColor=none;align=left;verticalAlign=top;spacingLeft=4;spacingRight=4;overflow=hidden;rotatable=0;points=[[0,0.5],[1,0.5]];portConstraint=eastwest;whiteSpace=wrap;html=1;" parent="aBuqhqVqtttqRS04YQ0r-16" vertex="1">
          <mxGeometry y="138" width="370" height="26" as="geometry" />
        </mxCell>
        <mxCell id="aBuqhqVqtttqRS04YQ0r-24" value="" style="endArrow=block;endSize=16;endFill=0;html=1;rounded=0;exitX=0.5;exitY=0;exitDx=0;exitDy=0;entryX=0.5;entryY=1;entryDx=0;entryDy=0;" parent="1" source="aBuqhqVqtttqRS04YQ0r-16" target="aBuqhqVqtttqRS04YQ0r-10" edge="1">
          <mxGeometry width="160" relative="1" as="geometry">
            <mxPoint x="-250" y="350" as="sourcePoint" />
            <mxPoint x="-90" y="350" as="targetPoint" />
          </mxGeometry>
        </mxCell>
        <mxCell id="aBuqhqVqtttqRS04YQ0r-25" value="Use" style="endArrow=open;endSize=12;dashed=1;html=1;rounded=0;entryX=-0.004;entryY=0.124;entryDx=0;entryDy=0;entryPerimeter=0;exitX=1;exitY=0.5;exitDx=0;exitDy=0;" parent="1" source="aBuqhqVqtttqRS04YQ0r-21" target="uOKx0rj1_0cN2vvm_NeN-8" edge="1">
          <mxGeometry width="160" relative="1" as="geometry">
            <mxPoint x="-200" y="585" as="sourcePoint" />
            <mxPoint x="-40" y="585" as="targetPoint" />
          </mxGeometry>
        </mxCell>
        <mxCell id="aBuqhqVqtttqRS04YQ0r-26" value="&amp;lt;&amp;lt;interface&amp;gt;&amp;gt;&lt;br&gt;I Have Inventory" style="swimlane;fontStyle=1;align=center;verticalAlign=top;childLayout=stackLayout;horizontal=1;startSize=45;horizontalStack=0;resizeParent=1;resizeParentMax=0;resizeLast=0;collapsible=1;marginBottom=0;whiteSpace=wrap;html=1;" parent="1" vertex="1">
          <mxGeometry x="-317" y="591" width="230" height="105" as="geometry" />
        </mxCell>
        <mxCell id="aBuqhqVqtttqRS04YQ0r-27" value="+ Locate(string ID): GameObject" style="text;strokeColor=none;fillColor=none;align=left;verticalAlign=top;spacingLeft=4;spacingRight=4;overflow=hidden;rotatable=0;points=[[0,0.5],[1,0.5]];portConstraint=eastwest;whiteSpace=wrap;html=1;" parent="aBuqhqVqtttqRS04YQ0r-26" vertex="1">
          <mxGeometry y="45" width="230" height="26" as="geometry" />
        </mxCell>
        <mxCell id="aBuqhqVqtttqRS04YQ0r-28" value="" style="line;strokeWidth=1;fillColor=none;align=left;verticalAlign=middle;spacingTop=-1;spacingLeft=3;spacingRight=3;rotatable=0;labelPosition=right;points=[];portConstraint=eastwest;strokeColor=inherit;" parent="aBuqhqVqtttqRS04YQ0r-26" vertex="1">
          <mxGeometry y="71" width="230" height="8" as="geometry" />
        </mxCell>
        <mxCell id="aBuqhqVqtttqRS04YQ0r-29" value="+ Name: String &amp;lt;&amp;lt;readonly, property&amp;gt;&amp;gt;" style="text;strokeColor=none;fillColor=none;align=left;verticalAlign=top;spacingLeft=4;spacingRight=4;overflow=hidden;rotatable=0;points=[[0,0.5],[1,0.5]];portConstraint=eastwest;whiteSpace=wrap;html=1;" parent="aBuqhqVqtttqRS04YQ0r-26" vertex="1">
          <mxGeometry y="79" width="230" height="26" as="geometry" />
        </mxCell>
        <mxCell id="aBuqhqVqtttqRS04YQ0r-30" value="Use" style="endArrow=open;endSize=12;dashed=1;html=1;rounded=0;entryX=0.5;entryY=0;entryDx=0;entryDy=0;exitX=0.507;exitY=1.149;exitDx=0;exitDy=0;exitPerimeter=0;" parent="1" source="aBuqhqVqtttqRS04YQ0r-22" target="aBuqhqVqtttqRS04YQ0r-26" edge="1">
          <mxGeometry width="160" relative="1" as="geometry">
            <mxPoint x="-326" y="551" as="sourcePoint" />
            <mxPoint x="-224" y="550" as="targetPoint" />
          </mxGeometry>
        </mxCell>
        <mxCell id="aBuqhqVqtttqRS04YQ0r-32" value="Implement" style="endArrow=block;endSize=16;endFill=0;html=1;rounded=0;entryX=0.489;entryY=1.127;entryDx=0;entryDy=0;entryPerimeter=0;exitX=0.267;exitY=-0.006;exitDx=0;exitDy=0;exitPerimeter=0;" parent="1" source="uOKx0rj1_0cN2vvm_NeN-38" target="aBuqhqVqtttqRS04YQ0r-29" edge="1">
          <mxGeometry width="160" relative="1" as="geometry">
            <mxPoint x="-202" y="780" as="sourcePoint" />
            <mxPoint x="-180" y="790" as="targetPoint" />
            <Array as="points">
              <mxPoint x="1" y="740" />
              <mxPoint x="-205" y="740" />
            </Array>
          </mxGeometry>
        </mxCell>
        <mxCell id="aBuqhqVqtttqRS04YQ0r-33" value="Implement" style="endArrow=block;endSize=16;endFill=0;html=1;rounded=0;exitX=0;exitY=0.5;exitDx=0;exitDy=0;entryX=0.285;entryY=0.968;entryDx=0;entryDy=0;entryPerimeter=0;" parent="1" source="aBuqhqVqtttqRS04YQ0r-6" target="aBuqhqVqtttqRS04YQ0r-29" edge="1">
          <mxGeometry x="-0.2676" y="-2" width="160" relative="1" as="geometry">
            <mxPoint x="-40" y="690" as="sourcePoint" />
            <mxPoint x="120" y="690" as="targetPoint" />
            <Array as="points">
              <mxPoint x="-250" y="1050" />
            </Array>
            <mxPoint as="offset" />
          </mxGeometry>
        </mxCell>
        <mxCell id="K2tTQRfAD9SXWWdDCdx0-1" value="Location" style="swimlane;fontStyle=1;align=center;verticalAlign=top;childLayout=stackLayout;horizontal=1;startSize=26;horizontalStack=0;resizeParent=1;resizeParentMax=0;resizeLast=0;collapsible=1;marginBottom=0;whiteSpace=wrap;html=1;" parent="1" vertex="1">
          <mxGeometry x="511" y="208" width="300" height="216" as="geometry" />
        </mxCell>
        <mxCell id="K2tTQRfAD9SXWWdDCdx0-2" value="+ _name: string" style="text;strokeColor=none;fillColor=none;align=left;verticalAlign=top;spacingLeft=4;spacingRight=4;overflow=hidden;rotatable=0;points=[[0,0.5],[1,0.5]];portConstraint=eastwest;whiteSpace=wrap;html=1;" parent="K2tTQRfAD9SXWWdDCdx0-1" vertex="1">
          <mxGeometry y="26" width="300" height="26" as="geometry" />
        </mxCell>
        <mxCell id="K2tTQRfAD9SXWWdDCdx0-5" value="+ _description: string" style="text;strokeColor=none;fillColor=none;align=left;verticalAlign=top;spacingLeft=4;spacingRight=4;overflow=hidden;rotatable=0;points=[[0,0.5],[1,0.5]];portConstraint=eastwest;whiteSpace=wrap;html=1;" parent="K2tTQRfAD9SXWWdDCdx0-1" vertex="1">
          <mxGeometry y="52" width="300" height="26" as="geometry" />
        </mxCell>
        <mxCell id="K2tTQRfAD9SXWWdDCdx0-6" value="+ _inventory: Inventory" style="text;strokeColor=none;fillColor=none;align=left;verticalAlign=top;spacingLeft=4;spacingRight=4;overflow=hidden;rotatable=0;points=[[0,0.5],[1,0.5]];portConstraint=eastwest;whiteSpace=wrap;html=1;" parent="K2tTQRfAD9SXWWdDCdx0-1" vertex="1">
          <mxGeometry y="78" width="300" height="26" as="geometry" />
        </mxCell>
        <mxCell id="K2tTQRfAD9SXWWdDCdx0-3" value="" style="line;strokeWidth=1;fillColor=none;align=left;verticalAlign=middle;spacingTop=-1;spacingLeft=3;spacingRight=3;rotatable=0;labelPosition=right;points=[];portConstraint=eastwest;strokeColor=inherit;" parent="K2tTQRfAD9SXWWdDCdx0-1" vertex="1">
          <mxGeometry y="104" width="300" height="8" as="geometry" />
        </mxCell>
        <mxCell id="K2tTQRfAD9SXWWdDCdx0-4" value="+ LocateItems(Inventory items, )" style="text;strokeColor=none;fillColor=none;align=left;verticalAlign=top;spacingLeft=4;spacingRight=4;overflow=hidden;rotatable=0;points=[[0,0.5],[1,0.5]];portConstraint=eastwest;whiteSpace=wrap;html=1;" parent="K2tTQRfAD9SXWWdDCdx0-1" vertex="1">
          <mxGeometry y="112" width="300" height="26" as="geometry" />
        </mxCell>
        <mxCell id="K2tTQRfAD9SXWWdDCdx0-10" value="+ Fetch( string ID): Item" style="text;strokeColor=none;fillColor=none;align=left;verticalAlign=top;spacingLeft=4;spacingRight=4;overflow=hidden;rotatable=0;points=[[0,0.5],[1,0.5]];portConstraint=eastwest;whiteSpace=wrap;html=1;" parent="K2tTQRfAD9SXWWdDCdx0-1" vertex="1">
          <mxGeometry y="138" width="300" height="26" as="geometry" />
        </mxCell>
        <mxCell id="K2tTQRfAD9SXWWdDCdx0-11" value="+ HasItem(string ID): bool" style="text;strokeColor=none;fillColor=none;align=left;verticalAlign=top;spacingLeft=4;spacingRight=4;overflow=hidden;rotatable=0;points=[[0,0.5],[1,0.5]];portConstraint=eastwest;whiteSpace=wrap;html=1;" parent="K2tTQRfAD9SXWWdDCdx0-1" vertex="1">
          <mxGeometry y="164" width="300" height="26" as="geometry" />
        </mxCell>
        <mxCell id="K2tTQRfAD9SXWWdDCdx0-12" value="+ LocationDescription: string&amp;lt;&amp;lt;override, readonly&amp;gt;&amp;gt;" style="text;strokeColor=none;fillColor=none;align=left;verticalAlign=top;spacingLeft=4;spacingRight=4;overflow=hidden;rotatable=0;points=[[0,0.5],[1,0.5]];portConstraint=eastwest;whiteSpace=wrap;html=1;" parent="K2tTQRfAD9SXWWdDCdx0-1" vertex="1">
          <mxGeometry y="190" width="300" height="26" as="geometry" />
        </mxCell>
        <mxCell id="K2tTQRfAD9SXWWdDCdx0-7" value="" style="endArrow=block;endSize=16;endFill=0;html=1;rounded=0;exitX=0;exitY=0.5;exitDx=0;exitDy=0;entryX=1;entryY=0.5;entryDx=0;entryDy=0;" parent="1" source="K2tTQRfAD9SXWWdDCdx0-5" target="uOKx0rj1_0cN2vvm_NeN-4" edge="1">
          <mxGeometry width="160" relative="1" as="geometry">
            <mxPoint x="370" y="230" as="sourcePoint" />
            <mxPoint x="540" y="231" as="targetPoint" />
          </mxGeometry>
        </mxCell>
        <mxCell id="rtqkthpI6leH-5DQ50SB-1" value="" style="endArrow=block;endSize=16;endFill=0;html=1;rounded=0;exitX=0.5;exitY=0;exitDx=0;exitDy=0;entryX=0;entryY=0.5;entryDx=0;entryDy=0;" edge="1" parent="1" source="K2tTQRfAD9SXWWdDCdx0-1" target="aBuqhqVqtttqRS04YQ0r-21">
          <mxGeometry width="160" relative="1" as="geometry">
            <mxPoint x="601" y="130" as="sourcePoint" />
            <mxPoint x="-480" y="440" as="targetPoint" />
            <Array as="points">
              <mxPoint x="660" y="130" />
              <mxPoint x="-480" y="130" />
              <mxPoint x="-480" y="456" />
            </Array>
          </mxGeometry>
        </mxCell>
      </root>
    </mxGraphModel>
  </diagram>
  <diagram id="EHWXWtLeK-PwFliiwm-j" name="Sequence Diagram">
    <mxGraphModel dx="1815" dy="532" grid="1" gridSize="10" guides="1" tooltips="1" connect="1" arrows="1" fold="1" page="1" pageScale="1" pageWidth="827" pageHeight="1169" math="0" shadow="0">
      <root>
        <mxCell id="0" />
        <mxCell id="1" parent="0" />
        <mxCell id="7r2UbD0F1zgmHvWA6tHy-1" value="&lt;u&gt;&lt;b&gt;p : Player&lt;/b&gt;&lt;/u&gt;" style="html=1;whiteSpace=wrap;" parent="1" vertex="1">
          <mxGeometry x="130" y="120" width="80" height="20" as="geometry" />
        </mxCell>
        <mxCell id="7r2UbD0F1zgmHvWA6tHy-2" value="" style="html=1;points=[[0,0,0,0,5],[0,1,0,0,-5],[1,0,0,0,5],[1,1,0,0,-5]];perimeter=orthogonalPerimeter;outlineConnect=0;targetShapes=umlLifeline;portConstraint=eastwest;newEdgeStyle={&quot;curved&quot;:0,&quot;rounded&quot;:0};" parent="1" vertex="1">
          <mxGeometry x="165" y="170" width="10" height="80" as="geometry" />
        </mxCell>
        <mxCell id="7r2UbD0F1zgmHvWA6tHy-3" value="" style="endArrow=none;dashed=1;html=1;rounded=0;entryX=0.5;entryY=1;entryDx=0;entryDy=0;" parent="1" source="7r2UbD0F1zgmHvWA6tHy-2" target="7r2UbD0F1zgmHvWA6tHy-1" edge="1">
          <mxGeometry width="50" height="50" relative="1" as="geometry">
            <mxPoint x="150" y="180" as="sourcePoint" />
            <mxPoint x="150" y="150" as="targetPoint" />
          </mxGeometry>
        </mxCell>
        <mxCell id="7r2UbD0F1zgmHvWA6tHy-4" value="" style="endArrow=classic;html=1;rounded=0;" parent="1" edge="1">
          <mxGeometry width="50" height="50" relative="1" as="geometry">
            <mxPoint x="95" y="170" as="sourcePoint" />
            <mxPoint x="165" y="170" as="targetPoint" />
          </mxGeometry>
        </mxCell>
        <mxCell id="7r2UbD0F1zgmHvWA6tHy-5" value="Locate &quot;inventory&quot;" style="edgeLabel;html=1;align=center;verticalAlign=middle;resizable=0;points=[];" parent="7r2UbD0F1zgmHvWA6tHy-4" vertex="1" connectable="0">
          <mxGeometry x="-0.4571" y="-1" relative="1" as="geometry">
            <mxPoint x="-4" y="-9" as="offset" />
          </mxGeometry>
        </mxCell>
        <mxCell id="7r2UbD0F1zgmHvWA6tHy-6" value="p" style="html=1;verticalAlign=bottom;endArrow=open;dashed=1;endSize=8;curved=0;rounded=0;" parent="1" edge="1">
          <mxGeometry relative="1" as="geometry">
            <mxPoint x="165" y="250" as="sourcePoint" />
            <mxPoint x="85" y="250" as="targetPoint" />
          </mxGeometry>
        </mxCell>
        <mxCell id="MTrsZqvLPlFXeM9OAK6I-2" value="" style="rounded=0;whiteSpace=wrap;html=1;" parent="1" vertex="1">
          <mxGeometry x="171" y="193" width="15" height="10" as="geometry" />
        </mxCell>
        <mxCell id="MTrsZqvLPlFXeM9OAK6I-3" value="" style="endArrow=classic;html=1;rounded=0;entryX=0.75;entryY=0;entryDx=0;entryDy=0;" parent="1" target="MTrsZqvLPlFXeM9OAK6I-2" edge="1">
          <mxGeometry width="50" height="50" relative="1" as="geometry">
            <mxPoint x="175" y="170" as="sourcePoint" />
            <mxPoint x="200" y="190" as="targetPoint" />
            <Array as="points">
              <mxPoint x="200" y="180" />
            </Array>
          </mxGeometry>
        </mxCell>
        <mxCell id="MTrsZqvLPlFXeM9OAK6I-15" value="AreYou &quot;inventory&quot;" style="edgeLabel;html=1;align=center;verticalAlign=middle;resizable=0;points=[];" parent="MTrsZqvLPlFXeM9OAK6I-3" vertex="1" connectable="0">
          <mxGeometry x="-0.3978" y="1" relative="1" as="geometry">
            <mxPoint x="38" y="-9" as="offset" />
          </mxGeometry>
        </mxCell>
        <mxCell id="MTrsZqvLPlFXeM9OAK6I-5" value="" style="html=1;verticalAlign=bottom;endArrow=open;dashed=1;endSize=8;curved=0;rounded=0;exitX=1;exitY=1;exitDx=0;exitDy=0;" parent="1" edge="1">
          <mxGeometry relative="1" as="geometry">
            <mxPoint x="186" y="201.5" as="sourcePoint" />
            <mxPoint x="175" y="218.5" as="targetPoint" />
            <Array as="points">
              <mxPoint x="210" y="218.5" />
            </Array>
          </mxGeometry>
        </mxCell>
        <mxCell id="MTrsZqvLPlFXeM9OAK6I-16" value="Yes/True" style="edgeLabel;html=1;align=center;verticalAlign=middle;resizable=0;points=[];" parent="MTrsZqvLPlFXeM9OAK6I-5" vertex="1" connectable="0">
          <mxGeometry x="-0.4949" y="1" relative="1" as="geometry">
            <mxPoint x="20" y="-7" as="offset" />
          </mxGeometry>
        </mxCell>
        <mxCell id="MTrsZqvLPlFXeM9OAK6I-17" value="&lt;u&gt;&lt;b&gt;p : Player&lt;/b&gt;&lt;/u&gt;" style="html=1;whiteSpace=wrap;" parent="1" vertex="1">
          <mxGeometry x="375" y="119.67" width="80" height="20" as="geometry" />
        </mxCell>
        <mxCell id="MTrsZqvLPlFXeM9OAK6I-18" value="" style="html=1;points=[[0,0,0,0,5],[0,1,0,0,-5],[1,0,0,0,5],[1,1,0,0,-5]];perimeter=orthogonalPerimeter;outlineConnect=0;targetShapes=umlLifeline;portConstraint=eastwest;newEdgeStyle={&quot;curved&quot;:0,&quot;rounded&quot;:0};" parent="1" vertex="1">
          <mxGeometry x="410" y="169.67" width="10" height="190.33" as="geometry" />
        </mxCell>
        <mxCell id="MTrsZqvLPlFXeM9OAK6I-19" value="" style="endArrow=none;dashed=1;html=1;rounded=0;entryX=0.5;entryY=1;entryDx=0;entryDy=0;" parent="1" source="MTrsZqvLPlFXeM9OAK6I-18" target="MTrsZqvLPlFXeM9OAK6I-17" edge="1">
          <mxGeometry width="50" height="50" relative="1" as="geometry">
            <mxPoint x="395" y="179.67" as="sourcePoint" />
            <mxPoint x="395" y="149.67" as="targetPoint" />
          </mxGeometry>
        </mxCell>
        <mxCell id="MTrsZqvLPlFXeM9OAK6I-20" value="" style="endArrow=classic;html=1;rounded=0;" parent="1" edge="1">
          <mxGeometry width="50" height="50" relative="1" as="geometry">
            <mxPoint x="340" y="169.67" as="sourcePoint" />
            <mxPoint x="410" y="169.67" as="targetPoint" />
          </mxGeometry>
        </mxCell>
        <mxCell id="MTrsZqvLPlFXeM9OAK6I-21" value="Locate &quot;sword&quot;" style="edgeLabel;html=1;align=center;verticalAlign=middle;resizable=0;points=[];" parent="MTrsZqvLPlFXeM9OAK6I-20" vertex="1" connectable="0">
          <mxGeometry x="-0.4571" y="-1" relative="1" as="geometry">
            <mxPoint x="-4" y="-9" as="offset" />
          </mxGeometry>
        </mxCell>
        <mxCell id="MTrsZqvLPlFXeM9OAK6I-22" value="sword" style="html=1;verticalAlign=bottom;endArrow=open;dashed=1;endSize=8;curved=0;rounded=0;" parent="1" edge="1">
          <mxGeometry relative="1" as="geometry">
            <mxPoint x="410" y="357.66999999999996" as="sourcePoint" />
            <mxPoint x="330" y="357.66999999999996" as="targetPoint" />
          </mxGeometry>
        </mxCell>
        <mxCell id="MTrsZqvLPlFXeM9OAK6I-23" value="" style="rounded=0;whiteSpace=wrap;html=1;" parent="1" vertex="1">
          <mxGeometry x="416" y="192.67" width="15" height="10" as="geometry" />
        </mxCell>
        <mxCell id="MTrsZqvLPlFXeM9OAK6I-24" value="" style="endArrow=classic;html=1;rounded=0;entryX=0.75;entryY=0;entryDx=0;entryDy=0;" parent="1" target="MTrsZqvLPlFXeM9OAK6I-23" edge="1">
          <mxGeometry width="50" height="50" relative="1" as="geometry">
            <mxPoint x="420" y="169.67" as="sourcePoint" />
            <mxPoint x="445" y="189.67" as="targetPoint" />
            <Array as="points">
              <mxPoint x="445" y="179.67" />
            </Array>
          </mxGeometry>
        </mxCell>
        <mxCell id="MTrsZqvLPlFXeM9OAK6I-25" value="AreYou &quot;sword&quot;" style="edgeLabel;html=1;align=center;verticalAlign=middle;resizable=0;points=[];" parent="MTrsZqvLPlFXeM9OAK6I-24" vertex="1" connectable="0">
          <mxGeometry x="-0.3978" y="1" relative="1" as="geometry">
            <mxPoint x="38" y="-9" as="offset" />
          </mxGeometry>
        </mxCell>
        <mxCell id="MTrsZqvLPlFXeM9OAK6I-26" value="" style="html=1;verticalAlign=bottom;endArrow=open;dashed=1;endSize=8;curved=0;rounded=0;exitX=1;exitY=1;exitDx=0;exitDy=0;" parent="1" edge="1">
          <mxGeometry relative="1" as="geometry">
            <mxPoint x="431" y="201.17" as="sourcePoint" />
            <mxPoint x="420" y="218.17" as="targetPoint" />
            <Array as="points">
              <mxPoint x="455" y="218.17" />
            </Array>
          </mxGeometry>
        </mxCell>
        <mxCell id="MTrsZqvLPlFXeM9OAK6I-27" value="No/False" style="edgeLabel;html=1;align=center;verticalAlign=middle;resizable=0;points=[];" parent="MTrsZqvLPlFXeM9OAK6I-26" vertex="1" connectable="0">
          <mxGeometry x="-0.4949" y="1" relative="1" as="geometry">
            <mxPoint x="20" y="-7" as="offset" />
          </mxGeometry>
        </mxCell>
        <mxCell id="MTrsZqvLPlFXeM9OAK6I-28" value="" style="endArrow=classic;html=1;rounded=0;" parent="1" source="MTrsZqvLPlFXeM9OAK6I-18" edge="1">
          <mxGeometry width="50" height="50" relative="1" as="geometry">
            <mxPoint x="431" y="250" as="sourcePoint" />
            <mxPoint x="520" y="250" as="targetPoint" />
          </mxGeometry>
        </mxCell>
        <mxCell id="MTrsZqvLPlFXeM9OAK6I-29" value="Fetch &quot;sword&quot;" style="edgeLabel;html=1;align=center;verticalAlign=middle;resizable=0;points=[];" parent="MTrsZqvLPlFXeM9OAK6I-28" vertex="1" connectable="0">
          <mxGeometry x="0.26" y="-1" relative="1" as="geometry">
            <mxPoint x="-15" y="-9" as="offset" />
          </mxGeometry>
        </mxCell>
        <mxCell id="MTrsZqvLPlFXeM9OAK6I-30" value="" style="html=1;points=[[0,0,0,0,5],[0,1,0,0,-5],[1,0,0,0,5],[1,1,0,0,-5]];perimeter=orthogonalPerimeter;outlineConnect=0;targetShapes=umlLifeline;portConstraint=eastwest;newEdgeStyle={&quot;curved&quot;:0,&quot;rounded&quot;:0};" parent="1" vertex="1">
          <mxGeometry x="520" y="250" width="10" height="90" as="geometry" />
        </mxCell>
        <mxCell id="MTrsZqvLPlFXeM9OAK6I-31" value="sword" style="html=1;verticalAlign=bottom;endArrow=open;dashed=1;endSize=8;curved=0;rounded=0;" parent="1" edge="1">
          <mxGeometry relative="1" as="geometry">
            <mxPoint x="520" y="339" as="sourcePoint" />
            <mxPoint x="420" y="339" as="targetPoint" />
          </mxGeometry>
        </mxCell>
        <mxCell id="MTrsZqvLPlFXeM9OAK6I-32" value="" style="endArrow=none;dashed=1;html=1;rounded=0;" parent="1" target="MTrsZqvLPlFXeM9OAK6I-30" edge="1">
          <mxGeometry width="50" height="50" relative="1" as="geometry">
            <mxPoint x="525" y="380" as="sourcePoint" />
            <mxPoint x="524.83" y="330" as="targetPoint" />
          </mxGeometry>
        </mxCell>
        <mxCell id="MTrsZqvLPlFXeM9OAK6I-33" value="" style="endArrow=none;dashed=1;html=1;rounded=0;" parent="1" target="MTrsZqvLPlFXeM9OAK6I-18" edge="1">
          <mxGeometry width="50" height="50" relative="1" as="geometry">
            <mxPoint x="415" y="380" as="sourcePoint" />
            <mxPoint x="414.83" y="360" as="targetPoint" />
          </mxGeometry>
        </mxCell>
        <mxCell id="MTrsZqvLPlFXeM9OAK6I-35" value="&lt;u&gt;&lt;b&gt;pi : Inventory&lt;/b&gt;&lt;/u&gt;" style="html=1;whiteSpace=wrap;" parent="1" vertex="1">
          <mxGeometry x="485" y="119.34" width="85" height="20" as="geometry" />
        </mxCell>
        <mxCell id="MTrsZqvLPlFXeM9OAK6I-36" value="" style="endArrow=none;dashed=1;html=1;rounded=0;" parent="1" edge="1">
          <mxGeometry width="50" height="50" relative="1" as="geometry">
            <mxPoint x="525" y="250" as="sourcePoint" />
            <mxPoint x="525" y="140" as="targetPoint" />
          </mxGeometry>
        </mxCell>
        <mxCell id="MTrsZqvLPlFXeM9OAK6I-37" value="" style="html=1;points=[[0,0,0,0,5],[0,1,0,0,-5],[1,0,0,0,5],[1,1,0,0,-5]];perimeter=orthogonalPerimeter;outlineConnect=0;targetShapes=umlLifeline;portConstraint=eastwest;newEdgeStyle={&quot;curved&quot;:0,&quot;rounded&quot;:0};" parent="1" vertex="1">
          <mxGeometry x="620" y="254.83" width="20" height="20" as="geometry" />
        </mxCell>
        <mxCell id="MTrsZqvLPlFXeM9OAK6I-38" value="" style="endArrow=classic;html=1;rounded=0;" parent="1" edge="1">
          <mxGeometry width="50" height="50" relative="1" as="geometry">
            <mxPoint x="530" y="255" as="sourcePoint" />
            <mxPoint x="620" y="255" as="targetPoint" />
          </mxGeometry>
        </mxCell>
        <mxCell id="MTrsZqvLPlFXeM9OAK6I-39" value="AreYou &quot;sword&quot;" style="edgeLabel;html=1;align=center;verticalAlign=middle;resizable=0;points=[];" parent="1" vertex="1" connectable="0">
          <mxGeometry x="572.9990488093381" y="246.99858656230816" as="geometry" />
        </mxCell>
        <mxCell id="MTrsZqvLPlFXeM9OAK6I-40" value="No/False" style="html=1;verticalAlign=bottom;endArrow=open;dashed=1;endSize=8;curved=0;rounded=0;" parent="1" edge="1">
          <mxGeometry relative="1" as="geometry">
            <mxPoint x="620" y="274.83000000000004" as="sourcePoint" />
            <mxPoint x="530" y="274.83000000000004" as="targetPoint" />
          </mxGeometry>
        </mxCell>
        <mxCell id="MTrsZqvLPlFXeM9OAK6I-41" value="&lt;u&gt;&lt;b&gt;gem : Item&lt;/b&gt;&lt;/u&gt;" style="html=1;whiteSpace=wrap;" parent="1" vertex="1">
          <mxGeometry x="590" y="120" width="85" height="20" as="geometry" />
        </mxCell>
        <mxCell id="MTrsZqvLPlFXeM9OAK6I-42" value="" style="endArrow=none;dashed=1;html=1;rounded=0;" parent="1" source="MTrsZqvLPlFXeM9OAK6I-37" edge="1">
          <mxGeometry width="50" height="50" relative="1" as="geometry">
            <mxPoint x="630" y="250.66" as="sourcePoint" />
            <mxPoint x="630" y="140.66" as="targetPoint" />
          </mxGeometry>
        </mxCell>
        <mxCell id="MTrsZqvLPlFXeM9OAK6I-43" value="" style="endArrow=none;dashed=1;html=1;rounded=0;" parent="1" target="MTrsZqvLPlFXeM9OAK6I-37" edge="1">
          <mxGeometry width="50" height="50" relative="1" as="geometry">
            <mxPoint x="630" y="380" as="sourcePoint" />
            <mxPoint x="629.83" y="274.83" as="targetPoint" />
          </mxGeometry>
        </mxCell>
        <mxCell id="MTrsZqvLPlFXeM9OAK6I-44" value="" style="endArrow=classic;html=1;rounded=0;" parent="1" target="MTrsZqvLPlFXeM9OAK6I-47" edge="1">
          <mxGeometry width="50" height="50" relative="1" as="geometry">
            <mxPoint x="530" y="310" as="sourcePoint" />
            <mxPoint x="620" y="310" as="targetPoint" />
          </mxGeometry>
        </mxCell>
        <mxCell id="MTrsZqvLPlFXeM9OAK6I-50" value="AreYou &quot;sword&quot;" style="edgeLabel;html=1;align=center;verticalAlign=middle;resizable=0;points=[];" parent="MTrsZqvLPlFXeM9OAK6I-44" vertex="1" connectable="0">
          <mxGeometry x="-0.2485" relative="1" as="geometry">
            <mxPoint x="75" y="-8" as="offset" />
          </mxGeometry>
        </mxCell>
        <mxCell id="MTrsZqvLPlFXeM9OAK6I-45" value="&lt;u&gt;&lt;b&gt;gem : Item&lt;/b&gt;&lt;/u&gt;" style="html=1;whiteSpace=wrap;" parent="1" vertex="1">
          <mxGeometry x="700" y="120" width="85" height="20" as="geometry" />
        </mxCell>
        <mxCell id="MTrsZqvLPlFXeM9OAK6I-46" value="" style="endArrow=none;dashed=1;html=1;rounded=0;" parent="1" source="MTrsZqvLPlFXeM9OAK6I-47" edge="1">
          <mxGeometry width="50" height="50" relative="1" as="geometry">
            <mxPoint x="740" y="255" as="sourcePoint" />
            <mxPoint x="740" y="140.66" as="targetPoint" />
          </mxGeometry>
        </mxCell>
        <mxCell id="MTrsZqvLPlFXeM9OAK6I-47" value="" style="html=1;points=[[0,0,0,0,5],[0,1,0,0,-5],[1,0,0,0,5],[1,1,0,0,-5]];perimeter=orthogonalPerimeter;outlineConnect=0;targetShapes=umlLifeline;portConstraint=eastwest;newEdgeStyle={&quot;curved&quot;:0,&quot;rounded&quot;:0};" parent="1" vertex="1">
          <mxGeometry x="730.5" y="308.00000000000006" width="20" height="20" as="geometry" />
        </mxCell>
        <mxCell id="MTrsZqvLPlFXeM9OAK6I-48" value="Yes/True" style="html=1;verticalAlign=bottom;endArrow=open;dashed=1;endSize=8;curved=0;rounded=0;" parent="1" edge="1">
          <mxGeometry x="-0.4963" relative="1" as="geometry">
            <mxPoint x="730.5" y="327" as="sourcePoint" />
            <mxPoint x="530" y="327" as="targetPoint" />
            <mxPoint as="offset" />
          </mxGeometry>
        </mxCell>
        <mxCell id="MTrsZqvLPlFXeM9OAK6I-51" value="" style="endArrow=none;dashed=1;html=1;rounded=0;" parent="1" edge="1">
          <mxGeometry width="50" height="50" relative="1" as="geometry">
            <mxPoint x="740" y="380" as="sourcePoint" />
            <mxPoint x="740" y="330" as="targetPoint" />
          </mxGeometry>
        </mxCell>
        <mxCell id="4DRcHMc6ZaBHgzy-7dhF-1" value="&lt;u&gt;&lt;b&gt;p : Player&lt;/b&gt;&lt;/u&gt;" style="html=1;whiteSpace=wrap;" parent="1" vertex="1">
          <mxGeometry x="917" y="120.33000000000001" width="80" height="20" as="geometry" />
        </mxCell>
        <mxCell id="4DRcHMc6ZaBHgzy-7dhF-2" value="" style="html=1;points=[[0,0,0,0,5],[0,1,0,0,-5],[1,0,0,0,5],[1,1,0,0,-5]];perimeter=orthogonalPerimeter;outlineConnect=0;targetShapes=umlLifeline;portConstraint=eastwest;newEdgeStyle={&quot;curved&quot;:0,&quot;rounded&quot;:0};" parent="1" vertex="1">
          <mxGeometry x="952" y="170.32999999999998" width="10" height="190.33" as="geometry" />
        </mxCell>
        <mxCell id="4DRcHMc6ZaBHgzy-7dhF-3" value="" style="endArrow=none;dashed=1;html=1;rounded=0;entryX=0.5;entryY=1;entryDx=0;entryDy=0;" parent="1" source="4DRcHMc6ZaBHgzy-7dhF-2" target="4DRcHMc6ZaBHgzy-7dhF-1" edge="1">
          <mxGeometry width="50" height="50" relative="1" as="geometry">
            <mxPoint x="937" y="180.32999999999998" as="sourcePoint" />
            <mxPoint x="937" y="150.32999999999998" as="targetPoint" />
          </mxGeometry>
        </mxCell>
        <mxCell id="4DRcHMc6ZaBHgzy-7dhF-4" value="" style="endArrow=classic;html=1;rounded=0;" parent="1" edge="1">
          <mxGeometry width="50" height="50" relative="1" as="geometry">
            <mxPoint x="882" y="170.32999999999998" as="sourcePoint" />
            <mxPoint x="952" y="170.32999999999998" as="targetPoint" />
          </mxGeometry>
        </mxCell>
        <mxCell id="4DRcHMc6ZaBHgzy-7dhF-5" value="Locate &quot;club&quot;" style="edgeLabel;html=1;align=center;verticalAlign=middle;resizable=0;points=[];" parent="4DRcHMc6ZaBHgzy-7dhF-4" vertex="1" connectable="0">
          <mxGeometry x="-0.4571" y="-1" relative="1" as="geometry">
            <mxPoint x="-4" y="-9" as="offset" />
          </mxGeometry>
        </mxCell>
        <mxCell id="4DRcHMc6ZaBHgzy-7dhF-6" value="null/nil" style="html=1;verticalAlign=bottom;endArrow=open;dashed=1;endSize=8;curved=0;rounded=0;" parent="1" edge="1">
          <mxGeometry relative="1" as="geometry">
            <mxPoint x="952" y="358.3299999999999" as="sourcePoint" />
            <mxPoint x="872" y="358.3299999999999" as="targetPoint" />
          </mxGeometry>
        </mxCell>
        <mxCell id="4DRcHMc6ZaBHgzy-7dhF-7" value="" style="rounded=0;whiteSpace=wrap;html=1;" parent="1" vertex="1">
          <mxGeometry x="958" y="193.32999999999998" width="15" height="10" as="geometry" />
        </mxCell>
        <mxCell id="4DRcHMc6ZaBHgzy-7dhF-8" value="" style="endArrow=classic;html=1;rounded=0;entryX=0.75;entryY=0;entryDx=0;entryDy=0;" parent="1" target="4DRcHMc6ZaBHgzy-7dhF-7" edge="1">
          <mxGeometry width="50" height="50" relative="1" as="geometry">
            <mxPoint x="962" y="170.32999999999998" as="sourcePoint" />
            <mxPoint x="987" y="190.32999999999998" as="targetPoint" />
            <Array as="points">
              <mxPoint x="987" y="180.32999999999998" />
            </Array>
          </mxGeometry>
        </mxCell>
        <mxCell id="4DRcHMc6ZaBHgzy-7dhF-9" value="AreYou &quot;club&quot;" style="edgeLabel;html=1;align=center;verticalAlign=middle;resizable=0;points=[];" parent="4DRcHMc6ZaBHgzy-7dhF-8" vertex="1" connectable="0">
          <mxGeometry x="-0.3978" y="1" relative="1" as="geometry">
            <mxPoint x="38" y="-9" as="offset" />
          </mxGeometry>
        </mxCell>
        <mxCell id="4DRcHMc6ZaBHgzy-7dhF-10" value="" style="html=1;verticalAlign=bottom;endArrow=open;dashed=1;endSize=8;curved=0;rounded=0;exitX=1;exitY=1;exitDx=0;exitDy=0;" parent="1" edge="1">
          <mxGeometry relative="1" as="geometry">
            <mxPoint x="973" y="201.82999999999998" as="sourcePoint" />
            <mxPoint x="962" y="218.82999999999998" as="targetPoint" />
            <Array as="points">
              <mxPoint x="997" y="218.82999999999998" />
            </Array>
          </mxGeometry>
        </mxCell>
        <mxCell id="4DRcHMc6ZaBHgzy-7dhF-11" value="No/False" style="edgeLabel;html=1;align=center;verticalAlign=middle;resizable=0;points=[];" parent="4DRcHMc6ZaBHgzy-7dhF-10" vertex="1" connectable="0">
          <mxGeometry x="-0.4949" y="1" relative="1" as="geometry">
            <mxPoint x="20" y="-7" as="offset" />
          </mxGeometry>
        </mxCell>
        <mxCell id="4DRcHMc6ZaBHgzy-7dhF-12" value="" style="endArrow=classic;html=1;rounded=0;" parent="1" source="4DRcHMc6ZaBHgzy-7dhF-2" edge="1">
          <mxGeometry width="50" height="50" relative="1" as="geometry">
            <mxPoint x="973" y="250.65999999999997" as="sourcePoint" />
            <mxPoint x="1062" y="250.65999999999997" as="targetPoint" />
          </mxGeometry>
        </mxCell>
        <mxCell id="4DRcHMc6ZaBHgzy-7dhF-13" value="Fetch &quot;club&quot;" style="edgeLabel;html=1;align=center;verticalAlign=middle;resizable=0;points=[];" parent="4DRcHMc6ZaBHgzy-7dhF-12" vertex="1" connectable="0">
          <mxGeometry x="0.26" y="-1" relative="1" as="geometry">
            <mxPoint x="-15" y="-9" as="offset" />
          </mxGeometry>
        </mxCell>
        <mxCell id="4DRcHMc6ZaBHgzy-7dhF-14" value="" style="html=1;points=[[0,0,0,0,5],[0,1,0,0,-5],[1,0,0,0,5],[1,1,0,0,-5]];perimeter=orthogonalPerimeter;outlineConnect=0;targetShapes=umlLifeline;portConstraint=eastwest;newEdgeStyle={&quot;curved&quot;:0,&quot;rounded&quot;:0};" parent="1" vertex="1">
          <mxGeometry x="1062" y="250.65999999999997" width="10" height="90" as="geometry" />
        </mxCell>
        <mxCell id="4DRcHMc6ZaBHgzy-7dhF-15" value="null/nil" style="html=1;verticalAlign=bottom;endArrow=open;dashed=1;endSize=8;curved=0;rounded=0;" parent="1" edge="1">
          <mxGeometry relative="1" as="geometry">
            <mxPoint x="1062" y="339.65999999999997" as="sourcePoint" />
            <mxPoint x="962" y="339.65999999999997" as="targetPoint" />
          </mxGeometry>
        </mxCell>
        <mxCell id="4DRcHMc6ZaBHgzy-7dhF-16" value="" style="endArrow=none;dashed=1;html=1;rounded=0;" parent="1" target="4DRcHMc6ZaBHgzy-7dhF-14" edge="1">
          <mxGeometry width="50" height="50" relative="1" as="geometry">
            <mxPoint x="1067" y="380.65999999999997" as="sourcePoint" />
            <mxPoint x="1066.83" y="330.65999999999997" as="targetPoint" />
          </mxGeometry>
        </mxCell>
        <mxCell id="4DRcHMc6ZaBHgzy-7dhF-17" value="" style="endArrow=none;dashed=1;html=1;rounded=0;" parent="1" target="4DRcHMc6ZaBHgzy-7dhF-2" edge="1">
          <mxGeometry width="50" height="50" relative="1" as="geometry">
            <mxPoint x="957" y="380.65999999999997" as="sourcePoint" />
            <mxPoint x="956.8299999999999" y="360.65999999999997" as="targetPoint" />
          </mxGeometry>
        </mxCell>
        <mxCell id="4DRcHMc6ZaBHgzy-7dhF-18" value="&lt;u&gt;&lt;b&gt;pi : Inventory&lt;/b&gt;&lt;/u&gt;" style="html=1;whiteSpace=wrap;" parent="1" vertex="1">
          <mxGeometry x="1027" y="120" width="85" height="20" as="geometry" />
        </mxCell>
        <mxCell id="4DRcHMc6ZaBHgzy-7dhF-19" value="" style="endArrow=none;dashed=1;html=1;rounded=0;" parent="1" edge="1">
          <mxGeometry width="50" height="50" relative="1" as="geometry">
            <mxPoint x="1067" y="250.65999999999997" as="sourcePoint" />
            <mxPoint x="1067" y="140.66" as="targetPoint" />
          </mxGeometry>
        </mxCell>
        <mxCell id="4DRcHMc6ZaBHgzy-7dhF-20" value="" style="html=1;points=[[0,0,0,0,5],[0,1,0,0,-5],[1,0,0,0,5],[1,1,0,0,-5]];perimeter=orthogonalPerimeter;outlineConnect=0;targetShapes=umlLifeline;portConstraint=eastwest;newEdgeStyle={&quot;curved&quot;:0,&quot;rounded&quot;:0};" parent="1" vertex="1">
          <mxGeometry x="1162" y="287.49" width="20" height="20" as="geometry" />
        </mxCell>
        <mxCell id="4DRcHMc6ZaBHgzy-7dhF-21" value="" style="endArrow=classic;html=1;rounded=0;" parent="1" edge="1">
          <mxGeometry width="50" height="50" relative="1" as="geometry">
            <mxPoint x="1072" y="288.65999999999997" as="sourcePoint" />
            <mxPoint x="1162" y="288.65999999999997" as="targetPoint" />
          </mxGeometry>
        </mxCell>
        <mxCell id="4DRcHMc6ZaBHgzy-7dhF-22" value="AreYou &quot;club&quot;" style="edgeLabel;html=1;align=center;verticalAlign=middle;resizable=0;points=[];" parent="1" vertex="1" connectable="0">
          <mxGeometry x="1114.999048809338" y="280.6585865623082" as="geometry" />
        </mxCell>
        <mxCell id="4DRcHMc6ZaBHgzy-7dhF-23" value="No/False" style="html=1;verticalAlign=bottom;endArrow=open;dashed=1;endSize=8;curved=0;rounded=0;" parent="1" edge="1">
          <mxGeometry relative="1" as="geometry">
            <mxPoint x="1162" y="307.49" as="sourcePoint" />
            <mxPoint x="1072" y="307.49" as="targetPoint" />
          </mxGeometry>
        </mxCell>
        <mxCell id="4DRcHMc6ZaBHgzy-7dhF-24" value="&lt;u&gt;&lt;b&gt;gem : Item&lt;/b&gt;&lt;/u&gt;" style="html=1;whiteSpace=wrap;" parent="1" vertex="1">
          <mxGeometry x="1132" y="120.66" width="85" height="20" as="geometry" />
        </mxCell>
        <mxCell id="4DRcHMc6ZaBHgzy-7dhF-25" value="" style="endArrow=none;dashed=1;html=1;rounded=0;" parent="1" source="4DRcHMc6ZaBHgzy-7dhF-20" edge="1">
          <mxGeometry width="50" height="50" relative="1" as="geometry">
            <mxPoint x="1172" y="251.31999999999994" as="sourcePoint" />
            <mxPoint x="1172" y="141.32" as="targetPoint" />
          </mxGeometry>
        </mxCell>
        <mxCell id="4DRcHMc6ZaBHgzy-7dhF-26" value="" style="endArrow=none;dashed=1;html=1;rounded=0;" parent="1" target="4DRcHMc6ZaBHgzy-7dhF-20" edge="1">
          <mxGeometry width="50" height="50" relative="1" as="geometry">
            <mxPoint x="1172" y="380.65999999999997" as="sourcePoint" />
            <mxPoint x="1171.83" y="275.49" as="targetPoint" />
          </mxGeometry>
        </mxCell>
        <mxCell id="4DRcHMc6ZaBHgzy-7dhF-28" value="Loop" style="shape=umlFrame;whiteSpace=wrap;html=1;pointerEvents=0;" parent="1" vertex="1">
          <mxGeometry x="866" y="263" width="344" height="60" as="geometry" />
        </mxCell>
        <mxCell id="4DRcHMc6ZaBHgzy-7dhF-30" value="&lt;font style=&quot;font-size: 9px;&quot;&gt;[ for each item ]&lt;/font&gt;" style="text;html=1;strokeColor=none;fillColor=none;align=center;verticalAlign=middle;whiteSpace=wrap;rounded=0;" parent="1" vertex="1">
          <mxGeometry x="866" y="284.66" width="80" height="30" as="geometry" />
        </mxCell>
        <mxCell id="K5hIgB8vO54ru9GjRhfZ-1" value="&lt;b&gt;&lt;u&gt;: Look Command&lt;/u&gt;&lt;/b&gt;" style="shape=umlLifeline;perimeter=lifelinePerimeter;whiteSpace=wrap;html=1;container=1;dropTarget=0;collapsible=0;recursiveResize=0;outlineConnect=0;portConstraint=eastwest;newEdgeStyle={&quot;curved&quot;:0,&quot;rounded&quot;:0};size=20;" vertex="1" parent="1">
          <mxGeometry x="100" y="411" width="120" height="310" as="geometry" />
        </mxCell>
        <mxCell id="K5hIgB8vO54ru9GjRhfZ-2" value="" style="html=1;points=[[0,0,0,0,5],[0,1,0,0,-5],[1,0,0,0,5],[1,1,0,0,-5]];perimeter=orthogonalPerimeter;outlineConnect=0;targetShapes=umlLifeline;portConstraint=eastwest;newEdgeStyle={&quot;curved&quot;:0,&quot;rounded&quot;:0};" vertex="1" parent="K5hIgB8vO54ru9GjRhfZ-1">
          <mxGeometry x="55" y="60" width="10" height="230" as="geometry" />
        </mxCell>
        <mxCell id="K5hIgB8vO54ru9GjRhfZ-4" value="" style="html=1;points=[[0,0,0,0,5],[0,1,0,0,-5],[1,0,0,0,5],[1,1,0,0,-5]];perimeter=orthogonalPerimeter;outlineConnect=0;targetShapes=umlLifeline;portConstraint=eastwest;newEdgeStyle={&quot;curved&quot;:0,&quot;rounded&quot;:0};" vertex="1" parent="K5hIgB8vO54ru9GjRhfZ-1">
          <mxGeometry x="61" y="89" width="10" height="191" as="geometry" />
        </mxCell>
        <mxCell id="K5hIgB8vO54ru9GjRhfZ-5" value="Look At In &lt;br&gt;(&quot;gem&quot;, p)" style="html=1;verticalAlign=bottom;endArrow=block;curved=0;rounded=0;exitX=1;exitY=0;exitDx=0;exitDy=5;exitPerimeter=0;" edge="1" parent="K5hIgB8vO54ru9GjRhfZ-1" source="K5hIgB8vO54ru9GjRhfZ-2" target="K5hIgB8vO54ru9GjRhfZ-4">
          <mxGeometry x="0.0786" width="80" relative="1" as="geometry">
            <mxPoint x="71" y="59" as="sourcePoint" />
            <mxPoint x="130" y="99" as="targetPoint" />
            <Array as="points">
              <mxPoint x="110" y="79" />
            </Array>
            <mxPoint as="offset" />
          </mxGeometry>
        </mxCell>
        <mxCell id="K5hIgB8vO54ru9GjRhfZ-3" value="Execute (p, [&quot;look&quot;, &quot;at&quot;, &quot;gem&quot;])" style="html=1;verticalAlign=bottom;endArrow=block;curved=0;rounded=0;" edge="1" parent="1" target="K5hIgB8vO54ru9GjRhfZ-2">
          <mxGeometry x="-0.68" width="80" relative="1" as="geometry">
            <mxPoint x="30" y="481" as="sourcePoint" />
            <mxPoint x="110" y="481" as="targetPoint" />
            <mxPoint as="offset" />
          </mxGeometry>
        </mxCell>
        <mxCell id="K5hIgB8vO54ru9GjRhfZ-6" value="Locate &quot;bag&quot;" style="html=1;verticalAlign=bottom;endArrow=block;curved=0;rounded=0;" edge="1" parent="1" target="K5hIgB8vO54ru9GjRhfZ-8">
          <mxGeometry width="80" relative="1" as="geometry">
            <mxPoint x="171" y="540" as="sourcePoint" />
            <mxPoint x="251" y="540" as="targetPoint" />
          </mxGeometry>
        </mxCell>
        <mxCell id="K5hIgB8vO54ru9GjRhfZ-7" value="&lt;b&gt;&lt;u&gt;p : Player&lt;/u&gt;&lt;/b&gt;" style="shape=umlLifeline;perimeter=lifelinePerimeter;whiteSpace=wrap;html=1;container=1;dropTarget=0;collapsible=0;recursiveResize=0;outlineConnect=0;portConstraint=eastwest;newEdgeStyle={&quot;curved&quot;:0,&quot;rounded&quot;:0};size=20;" vertex="1" parent="1">
          <mxGeometry x="237" y="411" width="120" height="310" as="geometry" />
        </mxCell>
        <mxCell id="K5hIgB8vO54ru9GjRhfZ-8" value="" style="html=1;points=[[0,0,0,0,5],[0,1,0,0,-5],[1,0,0,0,5],[1,1,0,0,-5]];perimeter=orthogonalPerimeter;outlineConnect=0;targetShapes=umlLifeline;portConstraint=eastwest;newEdgeStyle={&quot;curved&quot;:0,&quot;rounded&quot;:0};" vertex="1" parent="K5hIgB8vO54ru9GjRhfZ-7">
          <mxGeometry x="55" y="129" width="10" height="31" as="geometry" />
        </mxCell>
        <mxCell id="K5hIgB8vO54ru9GjRhfZ-17" value="&lt;b&gt;&lt;u&gt;bag : Bag&lt;/u&gt;&lt;/b&gt;" style="shape=umlLifeline;perimeter=lifelinePerimeter;whiteSpace=wrap;html=1;container=1;dropTarget=0;collapsible=0;recursiveResize=0;outlineConnect=0;portConstraint=eastwest;newEdgeStyle={&quot;curved&quot;:0,&quot;rounded&quot;:0};size=20;" vertex="1" parent="1">
          <mxGeometry x="383" y="411" width="120" height="310" as="geometry" />
        </mxCell>
        <mxCell id="K5hIgB8vO54ru9GjRhfZ-18" value="" style="html=1;points=[[0,0,0,0,5],[0,1,0,0,-5],[1,0,0,0,5],[1,1,0,0,-5]];perimeter=orthogonalPerimeter;outlineConnect=0;targetShapes=umlLifeline;portConstraint=eastwest;newEdgeStyle={&quot;curved&quot;:0,&quot;rounded&quot;:0};" vertex="1" parent="K5hIgB8vO54ru9GjRhfZ-17">
          <mxGeometry x="55" y="180" width="10" height="40" as="geometry" />
        </mxCell>
        <mxCell id="K5hIgB8vO54ru9GjRhfZ-19" value="&lt;b&gt;&lt;u&gt;gem : Item&lt;/u&gt;&lt;/b&gt;" style="shape=umlLifeline;perimeter=lifelinePerimeter;whiteSpace=wrap;html=1;container=1;dropTarget=0;collapsible=0;recursiveResize=0;outlineConnect=0;portConstraint=eastwest;newEdgeStyle={&quot;curved&quot;:0,&quot;rounded&quot;:0};size=20;" vertex="1" parent="1">
          <mxGeometry x="529" y="411" width="120" height="310" as="geometry" />
        </mxCell>
        <mxCell id="K5hIgB8vO54ru9GjRhfZ-20" value="" style="html=1;points=[[0,0,0,0,5],[0,1,0,0,-5],[1,0,0,0,5],[1,1,0,0,-5]];perimeter=orthogonalPerimeter;outlineConnect=0;targetShapes=umlLifeline;portConstraint=eastwest;newEdgeStyle={&quot;curved&quot;:0,&quot;rounded&quot;:0};" vertex="1" parent="K5hIgB8vO54ru9GjRhfZ-19">
          <mxGeometry x="55" y="240" width="10" height="30" as="geometry" />
        </mxCell>
        <mxCell id="K5hIgB8vO54ru9GjRhfZ-23" value="bag" style="endArrow=open;endSize=12;dashed=1;html=1;rounded=0;exitX=0;exitY=1;exitDx=0;exitDy=-5;exitPerimeter=0;" edge="1" parent="1" source="K5hIgB8vO54ru9GjRhfZ-8" target="K5hIgB8vO54ru9GjRhfZ-4">
          <mxGeometry width="160" relative="1" as="geometry">
            <mxPoint x="5" y="585" as="sourcePoint" />
            <mxPoint x="165" y="585" as="targetPoint" />
          </mxGeometry>
        </mxCell>
        <mxCell id="K5hIgB8vO54ru9GjRhfZ-24" value="Locate &quot;gem&quot;" style="html=1;verticalAlign=bottom;endArrow=block;curved=0;rounded=0;" edge="1" parent="1" target="K5hIgB8vO54ru9GjRhfZ-18">
          <mxGeometry width="80" relative="1" as="geometry">
            <mxPoint x="171" y="600" as="sourcePoint" />
            <mxPoint x="292" y="600" as="targetPoint" />
          </mxGeometry>
        </mxCell>
        <mxCell id="K5hIgB8vO54ru9GjRhfZ-25" value="gem" style="endArrow=open;endSize=12;dashed=1;html=1;rounded=0;" edge="1" parent="1">
          <mxGeometry width="160" relative="1" as="geometry">
            <mxPoint x="438" y="624" as="sourcePoint" />
            <mxPoint x="171" y="624" as="targetPoint" />
          </mxGeometry>
        </mxCell>
        <mxCell id="K5hIgB8vO54ru9GjRhfZ-26" value="Full Description" style="html=1;verticalAlign=bottom;endArrow=block;curved=0;rounded=0;entryX=0;entryY=0;entryDx=0;entryDy=5;entryPerimeter=0;" edge="1" parent="1" source="K5hIgB8vO54ru9GjRhfZ-4" target="K5hIgB8vO54ru9GjRhfZ-20">
          <mxGeometry width="80" relative="1" as="geometry">
            <mxPoint x="171" y="637" as="sourcePoint" />
            <mxPoint x="584" y="637" as="targetPoint" />
          </mxGeometry>
        </mxCell>
        <mxCell id="K5hIgB8vO54ru9GjRhfZ-27" value="&quot;A bright red...&quot;" style="endArrow=open;endSize=12;dashed=1;html=1;rounded=0;" edge="1" parent="1" source="K5hIgB8vO54ru9GjRhfZ-20">
          <mxGeometry width="160" relative="1" as="geometry">
            <mxPoint x="584" y="677" as="sourcePoint" />
            <mxPoint x="171" y="676" as="targetPoint" />
          </mxGeometry>
        </mxCell>
        <mxCell id="K5hIgB8vO54ru9GjRhfZ-28" value="&quot;A bright red....&quot;" style="html=1;verticalAlign=bottom;endArrow=block;curved=0;rounded=0;exitX=1;exitY=0;exitDx=0;exitDy=5;exitPerimeter=0;" edge="1" parent="1" target="K5hIgB8vO54ru9GjRhfZ-2">
          <mxGeometry x="-0.0403" y="-14" width="80" relative="1" as="geometry">
            <mxPoint x="171" y="690" as="sourcePoint" />
            <mxPoint x="177" y="714" as="targetPoint" />
            <Array as="points">
              <mxPoint x="216" y="704" />
            </Array>
            <mxPoint x="13" y="14" as="offset" />
          </mxGeometry>
        </mxCell>
        <mxCell id="K5hIgB8vO54ru9GjRhfZ-29" value="&quot;A bright red...&quot;" style="endArrow=open;endSize=12;dashed=1;html=1;rounded=0;" edge="1" parent="1" source="K5hIgB8vO54ru9GjRhfZ-2">
          <mxGeometry width="160" relative="1" as="geometry">
            <mxPoint x="151" y="700" as="sourcePoint" />
            <mxPoint x="30" y="700" as="targetPoint" />
          </mxGeometry>
        </mxCell>
      </root>
    </mxGraphModel>
  </diagram>
</mxfile>
